<?xml version="1.0" encoding="UTF-8" standalone="no"?>
<!-- Generator: Adobe Illustrator 19.0.0, SVG Export Plug-In . SVG Version: 6.00 Build 0)  -->

<svg
   xmlns:dc="http://purl.org/dc/elements/1.1/"
   xmlns:cc="http://creativecommons.org/ns#"
   xmlns:rdf="http://www.w3.org/1999/02/22-rdf-syntax-ns#"
   xmlns:svg="http://www.w3.org/2000/svg"
   xmlns="http://www.w3.org/2000/svg"
   xmlns:sodipodi="http://sodipodi.sourceforge.net/DTD/sodipodi-0.dtd"
   xmlns:inkscape="http://www.inkscape.org/namespaces/inkscape"
   version="1.1"
   id="Layer_1"
   x="0px"
   y="0px"
   viewBox="0 0 512 512"
   style="enable-background:new 0 0 512 512;"
   xml:space="preserve"
   inkscape:version="0.91 r13725"
   sodipodi:docname="loading.svg"><metadata
     id="metadata63"><rdf:RDF><cc:Work
         rdf:about=""><dc:format>image/svg+xml</dc:format><dc:type
           rdf:resource="http://purl.org/dc/dcmitype/StillImage" /><dc:title></dc:title></cc:Work></rdf:RDF></metadata><defs
     id="defs61" /><sodipodi:namedview
     pagecolor="#ffffff"
     bordercolor="#666666"
     borderopacity="1"
     objecttolerance="10"
     gridtolerance="10"
     guidetolerance="10"
     inkscape:pageopacity="0"
     inkscape:pageshadow="2"
     inkscape:window-width="1920"
     inkscape:window-height="1142"
     id="namedview59"
     showgrid="false"
     inkscape:zoom="0.921875"
     inkscape:cx="-46.224462"
     inkscape:cy="200.10037"
     inkscape:window-x="0"
     inkscape:window-y="0"
     inkscape:window-maximized="1"
     inkscape:current-layer="Layer_1" /><g
     id="g3"
     style="fill:#000000"><path
       style="fill:#000000;fill-opacity:0.08383234"
       d="M256,158c-25.916,0-47-21.084-47-47V47c0-25.916,21.084-47,47-47s47,21.084,47,47v64   C303,136.916,281.916,158,256,158z"
       id="path5" /><path
       style="fill:#000000;fill-opacity:0.55089819"
       d="M256,512c-25.916,0-47-21.084-47-47v-64c0-25.916,21.084-47,47-47s47,21.084,47,47v64   C303,490.916,281.916,512,256,512z"
       id="path7" /></g><path
     style="fill:#000000;fill-opacity:0.32934132"
     d="M111,303H47c-25.916,0-47-21.084-47-47s21.084-47,47-47h64c25.916,0,47,21.084,47,47  S136.916,303,111,303z"
     id="path15" /><path
     style="fill:#000000;fill-opacity:0.82634729"
     d="M465,303h-64c-25.916,0-47-21.084-47-47s21.084-47,47-47h64c25.916,0,47,21.084,47,47  S490.916,303,465,303z"
     id="path17" /><path
     style="fill:#000000;fill-opacity:0.45508981"
     d="M108.215,450.786c-12.555,0-24.357-4.889-33.234-13.767c-18.324-18.325-18.324-48.142-0.001-66.467  l45.256-45.255c8.877-8.877,20.68-13.766,33.234-13.766s24.357,4.889,33.233,13.766c8.877,8.877,13.767,20.68,13.767,33.234  c0,12.555-4.89,24.357-13.767,33.234l-45.255,45.254C132.572,445.896,120.77,450.786,108.215,450.786z"
     id="path19" /><g
     id="g21"
     style="fill:#000000"><path
       style="fill:#000000;fill-opacity:1"
       d="M358.53,200.47c-12.555,0-24.357-4.889-33.233-13.766c-8.877-8.877-13.767-20.68-13.767-33.234   c0-12.555,4.89-24.357,13.767-33.234l45.255-45.254c8.876-8.877,20.679-13.767,33.233-13.767s24.357,4.889,33.234,13.767l0,0   c18.324,18.325,18.324,48.142,0.001,66.467l-45.256,45.255C382.888,195.581,371.085,200.47,358.53,200.47z"
       id="path23" /><path
       style="fill:#000000;fill-opacity:0.67065871"
       d="M403.785,450.786c-12.555,0-24.357-4.889-33.234-13.767l-45.254-45.254   c-8.877-8.876-13.767-20.679-13.767-33.233c0-12.555,4.89-24.357,13.767-33.234l-0.001,0.001c0.001-0.001,0.001-0.001,0.001-0.001   c8.876-8.877,20.679-13.766,33.233-13.766s24.357,4.889,33.234,13.766l45.255,45.255c18.324,18.326,18.324,48.143,0,66.468   C428.143,445.896,416.34,450.786,403.785,450.786z M335.903,335.903h0.01H335.903z"
       id="path25" /></g><path
     style="fill:#000000;fill-opacity:0.22155689"
     d="M153.47,200.47c-12.554,0-24.357-4.889-33.234-13.766L74.98,141.449  c-18.324-18.326-18.324-48.143,0-66.468l0,0c8.877-8.877,20.68-13.767,33.234-13.767s24.357,4.889,33.234,13.767l45.254,45.254  c8.877,8.876,13.767,20.679,13.767,33.233c0,12.555-4.89,24.357-13.767,33.234C177.827,195.581,166.024,200.469,153.47,200.47z"
     id="path27" /><g
     id="g29" /><g
     id="g31" /><g
     id="g33" /><g
     id="g35" /><g
     id="g37" /><g
     id="g39" /><g
     id="g41" /><g
     id="g43" /><g
     id="g45" /><g
     id="g47" /><g
     id="g49" /><g
     id="g51" /><g
     id="g53" /><g
     id="g55" /><g
     id="g57" /></svg>